<?xml version="1.0" encoding="utf-8"?>
<!-- Generator: Adobe Illustrator 25.0.0, SVG Export Plug-In . SVG Version: 6.00 Build 0)  -->
<svg version="1.1" id="Layer_1" xmlns="http://www.w3.org/2000/svg" xmlns:xlink="http://www.w3.org/1999/xlink" x="0px" y="0px"
	 viewBox="0 0 186 40" style="enable-background:new 0 0 186 40;" xml:space="preserve">
<style type="text/css">
	.st0{fill:#FFFFFF;}
	.st1{fill:none;stroke:#0084FF;stroke-width:3;stroke-miterlimit:10;}
	.st2{fill:#0084FF;}
</style>
<g>
	<g>
		<path class="st0" d="M63.2,16.8c-0.1-0.3-0.2-0.6-0.4-0.9s-0.4-0.5-0.7-0.7s-0.6-0.3-0.9-0.4c-0.3-0.1-0.7-0.1-1.1-0.1
			c-0.8,0-1.5,0.2-2.1,0.6s-1,1-1.4,1.7c-0.3,0.7-0.5,1.7-0.5,2.7c0,1.1,0.2,2,0.5,2.7c0.3,0.8,0.8,1.3,1.3,1.7
			c0.6,0.4,1.3,0.6,2.1,0.6c0.7,0,1.4-0.1,1.9-0.4c0.5-0.2,0.9-0.6,1.2-1c0.3-0.4,0.4-1,0.4-1.6l0.8,0.1h-4.1v-2.9h7.2v2.2
			c0,1.5-0.3,2.8-1,3.8s-1.5,1.9-2.6,2.5c-1.1,0.6-2.4,0.9-3.8,0.9c-1.6,0-3-0.3-4.2-1c-1.2-0.7-2.2-1.7-2.8-3c-0.7-1.3-1-2.8-1-4.6
			c0-1.4,0.2-2.6,0.6-3.7c0.4-1.1,1-2,1.7-2.7c0.7-0.7,1.6-1.3,2.5-1.7c1-0.4,2-0.6,3.1-0.6c1,0,1.9,0.1,2.7,0.4
			c0.8,0.3,1.6,0.7,2.2,1.2c0.6,0.5,1.2,1.1,1.6,1.8c0.4,0.7,0.7,1.5,0.8,2.3H63.2z"/>
		<path class="st0" d="M73.4,28.2c-0.8,0-1.5-0.1-2.1-0.4s-1.1-0.7-1.5-1.2c-0.4-0.5-0.5-1.2-0.5-2.1c0-0.7,0.1-1.3,0.4-1.8
			s0.6-0.9,1-1.2s0.9-0.5,1.5-0.7c0.6-0.2,1.2-0.3,1.8-0.3c0.7-0.1,1.3-0.1,1.7-0.2c0.4-0.1,0.8-0.2,1-0.3c0.2-0.1,0.3-0.3,0.3-0.6
			v0c0-0.4-0.1-0.7-0.4-1c-0.3-0.2-0.7-0.3-1.2-0.3c-0.5,0-1,0.1-1.3,0.3c-0.3,0.2-0.5,0.5-0.6,0.9l-3.7-0.1c0.1-0.8,0.4-1.4,0.8-2
			s1.1-1.1,1.9-1.4c0.8-0.3,1.8-0.5,2.9-0.5c0.8,0,1.5,0.1,2.2,0.3c0.7,0.2,1.3,0.5,1.8,0.8c0.5,0.4,0.9,0.8,1.2,1.3
			c0.3,0.5,0.4,1.1,0.4,1.8V28h-3.8v-1.7H77c-0.2,0.4-0.5,0.8-0.9,1.1c-0.3,0.3-0.8,0.5-1.2,0.7C74.5,28.2,73.9,28.2,73.4,28.2z
			 M74.6,25.6c0.4,0,0.8-0.1,1.2-0.3c0.3-0.2,0.6-0.4,0.8-0.7s0.3-0.7,0.3-1.1v-1.2c-0.1,0.1-0.3,0.1-0.4,0.2s-0.3,0.1-0.5,0.1
			c-0.2,0-0.4,0.1-0.6,0.1c-0.2,0-0.4,0.1-0.6,0.1c-0.4,0.1-0.7,0.2-1,0.3c-0.3,0.1-0.5,0.3-0.6,0.5c-0.1,0.2-0.2,0.4-0.2,0.7
			c0,0.4,0.1,0.7,0.4,0.9C73.8,25.5,74.1,25.6,74.6,25.6z"/>
		<path class="st0" d="M83.3,28V15.5h3.8v2.3h0.1c0.3-0.8,0.7-1.4,1.3-1.8c0.6-0.4,1.4-0.7,2.2-0.7c0.9,0,1.6,0.2,2.2,0.7
			c0.6,0.4,1,1,1.2,1.8h0.1c0.2-0.7,0.7-1.3,1.4-1.8s1.5-0.7,2.4-0.7c1.2,0,2.2,0.4,2.9,1.1c0.7,0.8,1.1,1.8,1.1,3.1V28h-4v-7.5
			c0-0.6-0.2-1.1-0.5-1.4s-0.7-0.5-1.2-0.5c-0.5,0-1,0.2-1.3,0.5c-0.3,0.4-0.5,0.8-0.5,1.4V28h-3.8v-7.6c0-0.6-0.2-1-0.5-1.4
			c-0.3-0.3-0.7-0.5-1.2-0.5c-0.3,0-0.7,0.1-0.9,0.2c-0.3,0.2-0.5,0.4-0.6,0.7c-0.1,0.3-0.2,0.7-0.2,1.1V28H83.3z"/>
		<path class="st0" d="M110.5,28.3c-1.3,0-2.4-0.3-3.4-0.8c-1-0.5-1.7-1.3-2.2-2.2c-0.5-1-0.8-2.1-0.8-3.5c0-1.3,0.3-2.4,0.8-3.4
			c0.5-1,1.2-1.7,2.2-2.3c0.9-0.5,2-0.8,3.3-0.8c0.9,0,1.7,0.1,2.5,0.4c0.7,0.3,1.4,0.7,1.9,1.2c0.5,0.5,1,1.2,1.3,2
			c0.3,0.8,0.4,1.7,0.4,2.7v1h-10.9v-2.3h7.2c0-0.4-0.1-0.8-0.3-1.1c-0.2-0.3-0.5-0.6-0.8-0.8c-0.3-0.2-0.7-0.3-1.2-0.3
			c-0.4,0-0.8,0.1-1.2,0.3c-0.4,0.2-0.6,0.5-0.8,0.8s-0.3,0.7-0.3,1.2v2.4c0,0.5,0.1,1,0.3,1.3c0.2,0.4,0.5,0.7,0.9,0.9
			c0.4,0.2,0.8,0.3,1.3,0.3c0.4,0,0.7,0,1-0.1c0.3-0.1,0.5-0.2,0.7-0.4s0.4-0.4,0.5-0.7l3.7,0.1c-0.2,0.8-0.5,1.5-1,2.1
			c-0.5,0.6-1.2,1.1-2,1.4C112.5,28.1,111.6,28.3,110.5,28.3z"/>
		<path class="st0" d="M129.4,16.8c-0.1-0.3-0.2-0.6-0.4-0.9s-0.4-0.5-0.7-0.7c-0.3-0.2-0.6-0.3-0.9-0.4c-0.3-0.1-0.7-0.1-1.1-0.1
			c-0.8,0-1.5,0.2-2.1,0.6s-1,1-1.4,1.7c-0.3,0.7-0.5,1.7-0.5,2.7c0,1.1,0.2,2,0.5,2.7s0.8,1.3,1.3,1.7s1.3,0.6,2.1,0.6
			c0.7,0,1.4-0.1,1.9-0.4c0.5-0.2,0.9-0.6,1.2-1c0.3-0.4,0.4-1,0.4-1.6l0.8,0.1h-4.1v-2.9h7.2v2.2c0,1.5-0.3,2.8-1,3.8
			c-0.6,1.1-1.5,1.9-2.6,2.5c-1.1,0.6-2.4,0.9-3.8,0.9c-1.6,0-3-0.3-4.2-1s-2.2-1.7-2.8-3c-0.7-1.3-1-2.8-1-4.6
			c0-1.4,0.2-2.6,0.6-3.7c0.4-1.1,1-2,1.7-2.7s1.6-1.3,2.5-1.7c1-0.4,2-0.6,3.1-0.6c1,0,1.9,0.1,2.7,0.4c0.8,0.3,1.6,0.7,2.2,1.2
			s1.2,1.1,1.6,1.8c0.4,0.7,0.7,1.5,0.8,2.3H129.4z"/>
		<path class="st0" d="M144.2,22.6v-7.1h4V28h-3.8v-2.3h-0.1c-0.3,0.8-0.8,1.4-1.4,1.8s-1.5,0.7-2.4,0.7c-0.9,0-1.6-0.2-2.3-0.6
			c-0.6-0.4-1.2-0.9-1.5-1.6s-0.5-1.5-0.5-2.5v-8h4v7.2c0,0.7,0.2,1.2,0.5,1.6c0.4,0.4,0.8,0.6,1.4,0.6c0.4,0,0.8-0.1,1.1-0.3
			c0.3-0.2,0.6-0.4,0.8-0.8C144.1,23.5,144.2,23.1,144.2,22.6z"/>
		<path class="st0" d="M152.7,14c-0.6,0-1.1-0.2-1.5-0.6s-0.6-0.8-0.6-1.4c0-0.5,0.2-1,0.6-1.3s0.9-0.6,1.4-0.6c0.6,0,1,0.2,1.5,0.6
			s0.6,0.8,0.6,1.4c0,0.5-0.2,1-0.6,1.3S153.3,14,152.7,14z M150.7,28V15.5h4V28H150.7z"/>
		<path class="st0" d="M161.8,28.2c-0.9,0-1.8-0.2-2.5-0.7c-0.8-0.5-1.4-1.2-1.8-2.2c-0.5-1-0.7-2.1-0.7-3.6c0-1.5,0.2-2.7,0.7-3.6
			c0.5-1,1.1-1.7,1.8-2.1c0.8-0.5,1.6-0.7,2.5-0.7c0.7,0,1.2,0.1,1.7,0.3c0.5,0.2,0.9,0.5,1.2,0.9c0.3,0.4,0.5,0.7,0.7,1.1h0.1v-6.3
			h4V28h-4v-2h-0.1c-0.2,0.4-0.4,0.7-0.7,1.1c-0.3,0.3-0.7,0.6-1.2,0.8C163,28.1,162.5,28.2,161.8,28.2z M163.2,25.1
			c0.5,0,0.9-0.1,1.2-0.4c0.3-0.3,0.6-0.7,0.8-1.2c0.2-0.5,0.3-1.1,0.3-1.8c0-0.7-0.1-1.3-0.3-1.8s-0.4-0.9-0.8-1.1
			c-0.3-0.3-0.8-0.4-1.2-0.4c-0.5,0-0.9,0.1-1.3,0.4c-0.3,0.3-0.6,0.7-0.8,1.2c-0.2,0.5-0.3,1.1-0.3,1.8s0.1,1.3,0.3,1.8
			s0.4,0.9,0.8,1.2C162.3,25,162.7,25.1,163.2,25.1z"/>
		<path class="st0" d="M177.8,28.3c-1.3,0-2.4-0.3-3.4-0.8c-1-0.5-1.7-1.3-2.2-2.2c-0.5-1-0.8-2.1-0.8-3.5c0-1.3,0.3-2.4,0.8-3.4
			c0.5-1,1.2-1.7,2.2-2.3c0.9-0.5,2-0.8,3.3-0.8c0.9,0,1.7,0.1,2.5,0.4c0.7,0.3,1.4,0.7,1.9,1.2c0.5,0.5,1,1.2,1.3,2
			c0.3,0.8,0.4,1.7,0.4,2.7v1h-10.9v-2.3h7.2c0-0.4-0.1-0.8-0.3-1.1c-0.2-0.3-0.5-0.6-0.8-0.8c-0.3-0.2-0.7-0.3-1.2-0.3
			c-0.4,0-0.8,0.1-1.2,0.3c-0.4,0.2-0.6,0.5-0.8,0.8s-0.3,0.7-0.3,1.2v2.4c0,0.5,0.1,1,0.3,1.3c0.2,0.4,0.5,0.7,0.9,0.9
			c0.4,0.2,0.8,0.3,1.3,0.3c0.4,0,0.7,0,1-0.1c0.3-0.1,0.5-0.2,0.7-0.4s0.4-0.4,0.5-0.7l3.7,0.1c-0.2,0.8-0.5,1.5-1,2.1
			c-0.5,0.6-1.2,1.1-2,1.4C179.9,28.1,178.9,28.3,177.8,28.3z"/>
	</g>
</g>
<circle class="st1" cx="23.3" cy="20" r="17.5"/>
<g>
	<g>
		<path class="st2" d="M19.8,17.5c-0.1-0.4-0.2-0.7-0.4-0.9s-0.3-0.5-0.6-0.7c-0.2-0.2-0.5-0.3-0.7-0.4c-0.3-0.1-0.6-0.2-0.9-0.2
			c-0.6,0-1.2,0.2-1.6,0.6c-0.5,0.4-0.8,0.9-1.1,1.7c-0.3,0.7-0.4,1.6-0.4,2.6c0,1,0.1,1.9,0.4,2.7c0.3,0.7,0.6,1.3,1.1,1.7
			c0.5,0.4,1,0.6,1.7,0.6c0.6,0,1.1-0.1,1.5-0.4s0.7-0.6,1-1.1s0.3-1,0.3-1.7l0.5,0.1h-3.2v-2.4h5.1v1.9c0,1.3-0.2,2.4-0.7,3.4
			c-0.5,0.9-1.1,1.7-1.9,2.2c-0.8,0.5-1.7,0.8-2.7,0.8c-1.1,0-2.2-0.3-3-0.9s-1.5-1.5-2-2.7c-0.5-1.1-0.7-2.5-0.7-4.1
			c0-1.2,0.1-2.3,0.4-3.2c0.3-1,0.7-1.8,1.2-2.4c0.5-0.7,1.1-1.2,1.8-1.5c0.7-0.3,1.4-0.5,2.3-0.5c0.7,0,1.3,0.1,1.9,0.4
			c0.6,0.2,1.1,0.6,1.6,1s0.8,1,1.1,1.6c0.3,0.6,0.5,1.3,0.6,2H19.8z"/>
		<path class="st2" d="M32.6,17.5c-0.1-0.4-0.2-0.7-0.4-0.9s-0.3-0.5-0.6-0.7c-0.2-0.2-0.5-0.3-0.7-0.4c-0.3-0.1-0.6-0.2-0.9-0.2
			c-0.6,0-1.2,0.2-1.6,0.6c-0.5,0.4-0.8,0.9-1.1,1.7c-0.3,0.7-0.4,1.6-0.4,2.6c0,1,0.1,1.9,0.4,2.7c0.3,0.7,0.6,1.3,1.1,1.7
			c0.5,0.4,1,0.6,1.7,0.6c0.6,0,1.1-0.1,1.5-0.4s0.7-0.6,1-1.1s0.3-1,0.3-1.7l0.5,0.1h-3.2v-2.4h5.1v1.9c0,1.3-0.2,2.4-0.7,3.4
			c-0.5,0.9-1.1,1.7-1.9,2.2c-0.8,0.5-1.7,0.8-2.7,0.8c-1.1,0-2.2-0.3-3-0.9s-1.5-1.5-2-2.7c-0.5-1.1-0.7-2.5-0.7-4.1
			c0-1.2,0.1-2.3,0.4-3.2c0.3-1,0.7-1.8,1.2-2.4c0.5-0.7,1.1-1.2,1.8-1.5c0.7-0.3,1.4-0.5,2.3-0.5c0.7,0,1.3,0.1,1.9,0.4
			c0.6,0.2,1.1,0.6,1.6,1s0.8,1,1.1,1.6c0.3,0.6,0.5,1.3,0.6,2H32.6z"/>
	</g>
</g>
</svg>
