<svg xmlns="http://www.w3.org/2000/svg" viewBox="0 0 37.97 37.97"><defs><style>.cls-1{fill:none;stroke:#0084ff;stroke-miterlimit:10;stroke-width:3px;}.cls-2{fill:#0084ff;}</style></defs><g id="Layer_2" data-name="Layer 2"><g id="Layer_1-2" data-name="Layer 1"><circle class="cls-1" cx="18.98" cy="18.98" r="17.48"/><path class="cls-2" d="M15.49,16.5a3.67,3.67,0,0,0-.35-.95,2.55,2.55,0,0,0-.55-.7,2.42,2.42,0,0,0-.74-.44,2.73,2.73,0,0,0-.92-.15,2.55,2.55,0,0,0-1.65.57,3.68,3.68,0,0,0-1.11,1.65,7.88,7.88,0,0,0-.39,2.65,8,8,0,0,0,.39,2.66,3.6,3.6,0,0,0,1.1,1.67A2.59,2.59,0,0,0,13,24a2.8,2.8,0,0,0,1.51-.38,2.5,2.5,0,0,0,.95-1.08,3.76,3.76,0,0,0,.34-1.66l.52.09H13.11V18.62h5.13V20.5a7.65,7.65,0,0,1-.68,3.39,5.1,5.1,0,0,1-1.88,2.18,5,5,0,0,1-2.74.76,5.09,5.09,0,0,1-3-.93,6,6,0,0,1-2-2.65,10.38,10.38,0,0,1-.73-4.09,11.17,11.17,0,0,1,.43-3.25A7.34,7.34,0,0,1,8.8,13.49,5.26,5.26,0,0,1,10.63,12a5.19,5.19,0,0,1,4.19-.15,5,5,0,0,1,1.6,1,5.76,5.76,0,0,1,1.14,1.59,6.17,6.17,0,0,1,.57,2Z"/><path class="cls-2" d="M28.32,16.5a3.67,3.67,0,0,0-.35-.95,2.58,2.58,0,0,0-.56-.7,2.31,2.31,0,0,0-.74-.44,2.69,2.69,0,0,0-.92-.15,2.55,2.55,0,0,0-1.65.57A3.66,3.66,0,0,0,23,16.48a7.62,7.62,0,0,0-.4,2.65A8,8,0,0,0,23,21.79a3.68,3.68,0,0,0,1.1,1.67,2.64,2.64,0,0,0,1.69.57,2.79,2.79,0,0,0,1.5-.38,2.46,2.46,0,0,0,1-1.08,3.9,3.9,0,0,0,.33-1.66l.53.09H25.94V18.62h5.13V20.5a7.79,7.79,0,0,1-.68,3.39,5.24,5.24,0,0,1-1.88,2.18,5,5,0,0,1-2.75.76,5.09,5.09,0,0,1-3-.93,6.06,6.06,0,0,1-2-2.65A10.56,10.56,0,0,1,20,19.16a11.16,11.16,0,0,1,.44-3.25,7.15,7.15,0,0,1,1.22-2.42A5.32,5.32,0,0,1,23.45,12a5.22,5.22,0,0,1,4.2-.15,4.81,4.81,0,0,1,1.59,1,5.59,5.59,0,0,1,1.15,1.59,6.41,6.41,0,0,1,.56,2Z"/></g></g></svg>